<?xml version="1.0" encoding="utf-8"?>
<!-- Generator: Adobe Illustrator 21.1.0, SVG Export Plug-In . SVG Version: 6.00 Build 0)  -->
<svg version="1.1" xmlns="http://www.w3.org/2000/svg" xmlns:xlink="http://www.w3.org/1999/xlink" x="0px" y="0px"
	 viewBox="0 0 80 50" style="enable-background:new 0 0 80 50;" xml:space="preserve">
<style type="text/css">
	.st0{fill:url(#SVGID_1_);}
	.st1{opacity:0.51;}
	.st2{fill:url(#SVGID_2_);}
	.st3{filter:url(#Adobe_OpacityMaskFilter);}
	.st4{opacity:0.93;mask:url(#SVGID_3_);}
	.st5{fill:#FFFFFF;}
	.st6{fill:url(#SVGID_4_);}
	.st7{fill:#727373;}
	.st8{fill:url(#SVGID_5_);stroke:#333333;stroke-width:0.15;stroke-miterlimit:10;}
	.st9{opacity:0.7;fill:url(#SVGID_6_);stroke:#333333;stroke-width:0.25;stroke-miterlimit:10;}
	.st10{display:none;}
	.st11{display:inline;fill:url(#SVGID_7_);}
	.st12{display:inline;fill:url(#SVGID_8_);}
	.st13{fill:url(#SVGID_9_);}
	.st14{fill:url(#SVGID_10_);}
	.st15{fill:#666766;}
	.st16{fill:url(#SVGID_11_);}
</style>
<g id="Layer_1">
	<linearGradient id="SVGID_1_" gradientUnits="userSpaceOnUse" x1="2.6183" y1="24.561" x2="77.3817" y2="24.561">
		<stop  offset="4.006410e-05" style="stop-color:#CFD1D2"/>
		<stop  offset="0.1178" style="stop-color:#CBCDCE"/>
		<stop  offset="0.2019" style="stop-color:#C1C2C3"/>
		<stop  offset="0.2756" style="stop-color:#B0B1B3"/>
		<stop  offset="0.3432" style="stop-color:#9B9B9D"/>
		<stop  offset="0.4068" style="stop-color:#818284"/>
		<stop  offset="0.4664" style="stop-color:#646567"/>
		<stop  offset="0.5154" style="stop-color:#48484A"/>
		<stop  offset="0.5254" style="stop-color:#505052"/>
		<stop  offset="0.5623" style="stop-color:#666768"/>
		<stop  offset="0.6024" style="stop-color:#777879"/>
		<stop  offset="0.645" style="stop-color:#858686"/>
		<stop  offset="0.6912" style="stop-color:#8F9090"/>
		<stop  offset="0.7421" style="stop-color:#969696"/>
		<stop  offset="0.8004" style="stop-color:#9B9B9B"/>
		<stop  offset="0.8725" style="stop-color:#9D9D9D"/>
		<stop  offset="1" style="stop-color:#9E9E9E"/>
	</linearGradient>
	<path class="st0" d="M40.3,48.9c0,0,31.9,0,37.1,0C66.5,44.9,53.3,32,52.5,25c-1-9-7.9-15.6-9.2-16.9s-3-7.1-3-7.1L40,0.2L39.7,1
		c0,0-1.6,5.9-3,7.1S28.5,16,27.5,25c-0.8,7-14,19.9-24.9,23.9c5.2,0,37.1,0,37.1,0H40.3z"/>
</g>
<g id="Layer_1_copy_3">
	<g>
		
			<image style="overflow:visible;" width="614" height="503" xlink:href="6D3D2DFC6709FD64.png"  transform="matrix(0.24 0 0 0.24 -33.6 -35.76)">
		</image>
	</g>
</g>
<g id="Layer_1_copy_2">
	<g class="st1">
		<g>
			<linearGradient id="SVGID_2_" gradientUnits="userSpaceOnUse" x1="2.6183" y1="24.561" x2="77.3817" y2="24.561">
				<stop  offset="4.006410e-05" style="stop-color:#CFD1D2"/>
				<stop  offset="0.1178" style="stop-color:#CBCDCE"/>
				<stop  offset="0.2019" style="stop-color:#C1C2C3"/>
				<stop  offset="0.2756" style="stop-color:#B0B1B3"/>
				<stop  offset="0.3432" style="stop-color:#9B9B9D"/>
				<stop  offset="0.4068" style="stop-color:#818284"/>
				<stop  offset="0.4664" style="stop-color:#646567"/>
				<stop  offset="0.5154" style="stop-color:#48484A"/>
				<stop  offset="0.5254" style="stop-color:#505052"/>
				<stop  offset="0.5623" style="stop-color:#666768"/>
				<stop  offset="0.6024" style="stop-color:#777879"/>
				<stop  offset="0.645" style="stop-color:#858686"/>
				<stop  offset="0.6912" style="stop-color:#8F9090"/>
				<stop  offset="0.7421" style="stop-color:#969696"/>
				<stop  offset="0.8004" style="stop-color:#9B9B9B"/>
				<stop  offset="0.8725" style="stop-color:#9D9D9D"/>
				<stop  offset="1" style="stop-color:#9E9E9E"/>
			</linearGradient>
			<path class="st2" d="M40.3,48.9c0,0,31.9,0,37.1,0C66.5,44.9,53.3,32,52.5,25c-1-9-7.9-15.6-9.2-16.9s-3-7.1-3-7.1L40,0.2L39.7,1
				c0,0-1.6,5.9-3,7.1S28.5,16,27.5,25c-0.8,7-14,19.9-24.9,23.9c5.2,0,37.1,0,37.1,0H40.3z"/>
		</g>
		<defs>
			<filter id="Adobe_OpacityMaskFilter" filterUnits="userSpaceOnUse" x="2.6" y="0.2" width="74.8" height="48.6">
				<feFlood  style="flood-color:white;flood-opacity:1" result="back"/>
				<feBlend  in="SourceGraphic" in2="back" mode="normal"/>
			</filter>
		</defs>
		<mask maskUnits="userSpaceOnUse" x="2.6" y="0.2" width="74.8" height="48.6" id="SVGID_3_">
			<g class="st3">
				
					<image style="overflow:visible;" width="330" height="220" xlink:href="6D3D2DFC6709FD64.jpg"  transform="matrix(0.24 0 0 0.24 0.48 -1.92)">
				</image>
			</g>
		</mask>
		<g class="st4">
			<path class="st5" d="M40.3,48.9c0,0,31.9,0,37.1,0C66.5,44.9,53.3,32,52.5,25c-1-9-7.9-15.6-9.2-16.9s-3-7.1-3-7.1L40,0.2L39.7,1
				c0,0-1.6,5.9-3,7.1S28.5,16,27.5,25c-0.8,7-14,19.9-24.9,23.9c5.2,0,37.1,0,37.1,0H40.3z"/>
		</g>
	</g>
</g>
<g id="Layer_1_copy">
	<linearGradient id="SVGID_4_" gradientUnits="userSpaceOnUse" x1="9.9489" y1="21.517" x2="79.7041" y2="40.2079">
		<stop  offset="4.006410e-05" style="stop-color:#CFD1D2;stop-opacity:0"/>
		<stop  offset="7.887067e-02" style="stop-color:#DFE0E1;stop-opacity:0.4883"/>
		<stop  offset="0.1615" style="stop-color:#F3F4F4"/>
		<stop  offset="0.2734" style="stop-color:#C3C3C3;stop-opacity:0.7011"/>
		<stop  offset="0.3765" style="stop-color:#A7A7A7;stop-opacity:0.4256"/>
		<stop  offset="0.4673" style="stop-color:#979798;stop-opacity:0.1833"/>
		<stop  offset="0.5359" style="stop-color:#929292;stop-opacity:0"/>
		<stop  offset="0.6042" style="stop-color:#B0AFAF;stop-opacity:0.3375"/>
		<stop  offset="0.7384" style="stop-color:#F3F4F4"/>
		<stop  offset="0.7848" style="stop-color:#E7E6E6;stop-opacity:0.8225"/>
		<stop  offset="0.8645" style="stop-color:#CECDCD;stop-opacity:0.5181"/>
		<stop  offset="0.9671" style="stop-color:#AAA9A9;stop-opacity:0.1259"/>
		<stop  offset="1" style="stop-color:#9E9E9E;stop-opacity:0"/>
	</linearGradient>
	<path class="st6" d="M40.3,48.9c0,0,31.9,0,37.1,0C66.5,44.9,53.3,32,52.5,25c-1-9-7.9-15.6-9.2-16.9s-3-7.1-3-7.1L40,0.2L39.7,1
		c0,0-1.6,5.9-3,7.1S28.5,16,27.5,25c-0.8,7-14,19.9-24.9,23.9c5.2,0,37.1,0,37.1,0H40.3z"/>
</g>
<g id="Layer_6">
	<g>
		
			<image style="overflow:visible;opacity:0.71;" width="106" height="177" xlink:href="6D3D2DFC6709FD6C.png"  transform="matrix(0.24 0 0 0.24 27.48 6.84)">
		</image>
		<g>
			<path class="st7" d="M40,44.1c-1.9,0-3-2-3.1-2.3c-0.5-0.9-5.1-9.1-5.6-11.6l-0.1-0.5c-0.5-2.5-1.2-6,0.1-12.9
				c1.5-7.7,8-8.9,8.3-8.9l0.1,0h0.7l0.1,0c0.3,0,6.8,1.2,8.3,8.9c1.3,6.9,0.6,10.4,0.1,12.9l-0.1,0.5c-0.5,2.6-5.1,10.7-5.6,11.7
				C43,42.1,41.9,44.1,40,44.1z"/>
		</g>
	</g>
	<path class="st7" d="M42.3,41.4c0,0,5-8.9,5.5-11.4s1.4-5.9,0-13s-7.5-8.1-7.5-8.1h-0.5c0,0-6.1,1-7.5,8.1s-0.5,10.5,0,13
		s5.5,11.4,5.5,11.4s0.9,1.7,2.3,1.7S42.3,41.4,42.3,41.4z"/>
</g>
<g id="Layer_2">
	<linearGradient id="SVGID_5_" gradientUnits="userSpaceOnUse" x1="31.5086" y1="25.9868" x2="48.4914" y2="25.9868">
		<stop  offset="0" style="stop-color:#4378BC"/>
		<stop  offset="0.9949" style="stop-color:#293693"/>
	</linearGradient>
	<path class="st8" d="M42.3,41.4c0,0,5-8.9,5.5-11.4s1.4-5.9,0-13s-7.5-8.1-7.5-8.1h-0.5c0,0-6.1,1-7.5,8.1s-0.5,10.5,0,13
		s5.5,11.4,5.5,11.4s0.9,1.7,2.3,1.7S42.3,41.4,42.3,41.4z"/>
</g>
<g id="Layer_2_copy">
	<linearGradient id="SVGID_6_" gradientUnits="userSpaceOnUse" x1="30.4907" y1="23.4246" x2="48.2482" y2="28.1827">
		<stop  offset="0" style="stop-color:#FFFFFF;stop-opacity:0"/>
		<stop  offset="0.4922" style="stop-color:#FFFFFF"/>
		<stop  offset="1" style="stop-color:#FBFBFA;stop-opacity:0"/>
	</linearGradient>
	<path class="st9" d="M42.3,41.4c0,0,5-8.9,5.5-11.4s1.4-5.9,0-13s-7.5-8.1-7.5-8.1h-0.5c0,0-6.1,1-7.5,8.1s-0.5,10.5,0,13
		s5.5,11.4,5.5,11.4s0.9,1.7,2.3,1.7S42.3,41.4,42.3,41.4z"/>
</g>
<g id="Layer_3" class="st10">
	<linearGradient id="SVGID_7_" gradientUnits="userSpaceOnUse" x1="31.5744" y1="22.0127" x2="40" y2="22.0127">
		<stop  offset="0" style="stop-color:#FFFFFF"/>
		<stop  offset="1" style="stop-color:#0055A7"/>
	</linearGradient>
	<path class="st11" d="M32.2,17c0,0,3.7,5.1,7.8,5.5c0,4.5,0,4.5,0,4.5s-5.1-1.2-8.4-5C31.8,19.4,32.2,17,32.2,17z"/>
	
		<linearGradient id="SVGID_8_" gradientUnits="userSpaceOnUse" x1="31.5744" y1="22.0127" x2="40" y2="22.0127" gradientTransform="matrix(-1 0 0 1 80 0)">
		<stop  offset="0" style="stop-color:#FFFFFF"/>
		<stop  offset="1" style="stop-color:#0055A7"/>
	</linearGradient>
	<path class="st12" d="M47.8,17c0,0-3.7,5.1-7.8,5.5c0,4.5,0,4.5,0,4.5s5.1-1.2,8.4-5C48.2,19.4,47.8,17,47.8,17z"/>
</g>
<g id="Layer_5">
	<g>
		
			<image style="overflow:visible;opacity:0.75;" width="31" height="225" xlink:href="6D3D2DFC6709FD6F.png"  transform="matrix(0.24 0 0 0.24 36.36 -2.04)">
		</image>
		<g>
			<linearGradient id="SVGID_9_" gradientUnits="userSpaceOnUse" x1="28.0418" y1="36.9263" x2="52.023" y2="12.945">
				<stop  offset="0" style="stop-color:#8D9092"/>
				<stop  offset="0.4923" style="stop-color:#E4E5E6"/>
				<stop  offset="0.9949" style="stop-color:#7B7C7F"/>
			</linearGradient>
			<path class="st13" d="M40,48.9L40,48.9c-0.3,0-0.5-6-0.5-6.5V5.9c0-0.5,0.3-4.9,0.6-4.9l0,0c0.3,0,0.4,4.3,0.4,4.9v36.5
				C40.5,42.8,40.3,48.9,40,48.9z"/>
		</g>
	</g>
</g>
<g id="Layer_4">
	<linearGradient id="SVGID_10_" gradientUnits="userSpaceOnUse" x1="2.6183" y1="44.4338" x2="6.2048" y2="44.4338">
		<stop  offset="4.006410e-05" style="stop-color:#CFD1D2"/>
		<stop  offset="1" style="stop-color:#818282"/>
	</linearGradient>
	<polygon class="st14" points="6.2,41.7 6.2,50 2.6,50 2.6,41.7 4.6,38.9 6.2,38.9 	"/>
	<path class="st15" d="M5.2,50.6L5.2,50.6c-0.3,0-0.5-0.2-0.5-0.5v-9.5c0-0.3,0.2-0.5,0.5-0.5h0c0.3,0,0.5,0.2,0.5,0.5v9.5
		C5.7,50.3,5.5,50.6,5.2,50.6z"/>
	
		<linearGradient id="SVGID_11_" gradientUnits="userSpaceOnUse" x1="68.8546" y1="44.4338" x2="72.4411" y2="44.4338" gradientTransform="matrix(-1 0 0 1 146.2363 0)">
		<stop  offset="4.006410e-05" style="stop-color:#CFD1D2"/>
		<stop  offset="1" style="stop-color:#818282"/>
	</linearGradient>
	<polygon class="st16" points="73.8,41.7 73.8,50 77.4,50 77.4,41.7 75.4,38.9 73.8,38.9 	"/>
	<path class="st15" d="M75,50.6L75,50.6c0.3,0,0.5-0.2,0.5-0.5v-9.5c0-0.3-0.2-0.5-0.5-0.5l0,0c-0.3,0-0.5,0.2-0.5,0.5v9.5
		C74.5,50.3,74.7,50.6,75,50.6z"/>
</g>
</svg>
