<?xml version="1.0" encoding="utf-8"?>
<!-- Generator: Adobe Illustrator 21.1.0, SVG Export Plug-In . SVG Version: 6.00 Build 0)  -->
<svg version="1.1" id="Layer_1" xmlns="http://www.w3.org/2000/svg" xmlns:xlink="http://www.w3.org/1999/xlink" x="0px" y="0px"
	 viewBox="0 0 200 80" style="enable-background:new 0 0 200 80;" xml:space="preserve">
<style type="text/css">
	.st0{fill:#485CAA;}
	.st1{enable-background:new    ;}
	.st2{fill:#FFFFFF;}
</style>
<g id="Layer_1_1_">
	<ellipse class="st0" cx="100" cy="40" rx="97.9" ry="38.1"/>
</g>
<g id="Layer_2">
	<g class="st1">
		<path class="st2" d="M37.8,29.9v5.3h-3.2v-5.3l-5-8.6h2.8c0.3,0,0.5,0.1,0.7,0.2c0.2,0.1,0.3,0.3,0.4,0.5l2,4
			c0.2,0.3,0.3,0.6,0.4,0.9c0.1,0.3,0.2,0.5,0.4,0.8c0.1-0.3,0.2-0.5,0.3-0.8s0.3-0.6,0.4-0.9l1.9-4c0-0.1,0.1-0.2,0.2-0.2
			c0.1-0.1,0.1-0.2,0.2-0.2c0.1-0.1,0.2-0.1,0.3-0.2c0.1,0,0.2-0.1,0.4-0.1h2.9L37.8,29.9z"/>
		<path class="st2" d="M46.7,25.1c0.7,0,1.4,0.1,2,0.4s1.1,0.6,1.6,1c0.4,0.4,0.8,1,1,1.6s0.4,1.3,0.4,2.1c0,0.8-0.1,1.5-0.4,2.1
			s-0.6,1.2-1,1.6c-0.4,0.4-1,0.8-1.6,1s-1.3,0.4-2,0.4c-0.8,0-1.4-0.1-2.1-0.4c-0.6-0.2-1.1-0.6-1.6-1c-0.4-0.4-0.8-1-1-1.6
			c-0.2-0.6-0.4-1.3-0.4-2.1c0-0.8,0.1-1.5,0.4-2.1c0.2-0.6,0.6-1.2,1-1.6c0.4-0.4,1-0.8,1.6-1C45.2,25.2,45.9,25.1,46.7,25.1z
			 M46.7,33.1c0.7,0,1.2-0.2,1.5-0.7c0.3-0.5,0.5-1.2,0.5-2.2c0-1-0.2-1.7-0.5-2.2c-0.3-0.5-0.8-0.7-1.5-0.7c-0.7,0-1.2,0.2-1.5,0.7
			c-0.3,0.5-0.5,1.2-0.5,2.2c0,1,0.2,1.7,0.5,2.2C45.5,32.8,46,33.1,46.7,33.1z"/>
		<path class="st2" d="M56.1,25.3v6.3c0,0.5,0.1,0.9,0.3,1.1c0.2,0.3,0.5,0.4,1,0.4c0.3,0,0.6-0.1,0.9-0.2s0.6-0.3,0.8-0.6v-7H62
			v9.9h-1.8c-0.4,0-0.6-0.2-0.7-0.5L59.3,34c-0.2,0.2-0.4,0.4-0.6,0.5c-0.2,0.1-0.4,0.3-0.7,0.4c-0.2,0.1-0.5,0.2-0.7,0.2
			c-0.3,0.1-0.6,0.1-0.9,0.1c-0.5,0-1-0.1-1.4-0.3c-0.4-0.2-0.8-0.4-1-0.8s-0.5-0.7-0.6-1.2s-0.2-1-0.2-1.5v-6.3H56.1z"/>
		<path class="st2" d="M66.4,20.4c0.3,0.4,0.4,0.8,0.6,1.2c0.1,0.4,0.2,0.8,0.2,1.2c0,0.7-0.2,1.3-0.5,1.9c-0.4,0.6-0.9,1.2-1.6,1.7
			l-0.9-0.6c-0.1,0-0.1-0.1-0.2-0.2c0-0.1-0.1-0.1-0.1-0.2c0-0.1,0-0.1,0-0.2s0.1-0.1,0.1-0.2c0.1-0.1,0.1-0.2,0.2-0.3
			c0.1-0.1,0.2-0.2,0.2-0.4c0.1-0.1,0.1-0.3,0.2-0.5c0.1-0.2,0.1-0.4,0.1-0.6c0-0.2,0-0.5-0.1-0.7c-0.1-0.3-0.2-0.5-0.4-0.8
			c-0.1-0.1-0.1-0.2-0.1-0.3c0-0.1,0-0.2,0.1-0.3c0.1-0.1,0.2-0.2,0.3-0.2L66.4,20.4z"/>
		<path class="st2" d="M68.8,35.1v-9.9h1.7c0.1,0,0.3,0,0.4,0c0.1,0,0.2,0.1,0.2,0.1c0.1,0.1,0.1,0.1,0.2,0.2c0,0.1,0.1,0.2,0.1,0.3
			l0.2,0.9c0.4-0.6,0.8-1,1.2-1.3c0.4-0.3,0.9-0.5,1.5-0.5c0.4,0,0.8,0.1,1.1,0.3L75,27.6c0,0.1-0.1,0.2-0.2,0.3s-0.2,0.1-0.3,0.1
			c-0.1,0-0.2,0-0.4,0s-0.3,0-0.6,0c-0.8,0-1.4,0.4-1.8,1.2v6H68.8z"/>
		<path class="st2" d="M80.9,25.1c0.7,0,1.2,0.1,1.8,0.3c0.5,0.2,1,0.5,1.4,0.9c0.4,0.4,0.7,0.9,0.9,1.4c0.2,0.6,0.3,1.2,0.3,1.9
			c0,0.2,0,0.4,0,0.5c0,0.1-0.1,0.2-0.1,0.3c-0.1,0.1-0.1,0.1-0.2,0.2c-0.1,0-0.2,0-0.3,0h-5.7c0.1,0.8,0.3,1.4,0.8,1.8
			c0.4,0.4,0.9,0.6,1.6,0.6c0.3,0,0.6,0,0.9-0.1c0.2-0.1,0.5-0.2,0.7-0.3c0.2-0.1,0.4-0.2,0.5-0.3c0.2-0.1,0.3-0.1,0.5-0.1
			c0.2,0,0.4,0.1,0.5,0.3l0.9,1.1c-0.3,0.3-0.6,0.6-1,0.9c-0.4,0.2-0.7,0.4-1.1,0.5s-0.7,0.2-1.1,0.3c-0.4,0-0.7,0.1-1.1,0.1
			c-0.7,0-1.3-0.1-1.9-0.3c-0.6-0.2-1.1-0.6-1.6-1c-0.5-0.4-0.8-1-1.1-1.7C76.1,31.6,76,30.8,76,30c0-0.7,0.1-1.3,0.3-1.9
			c0.2-0.6,0.5-1.1,1-1.5c0.4-0.4,0.9-0.8,1.5-1.1C79.4,25.2,80.1,25.1,80.9,25.1z M80.9,27.1c-0.6,0-1,0.2-1.3,0.5
			c-0.3,0.3-0.5,0.8-0.6,1.4h3.7c0-0.2,0-0.5-0.1-0.7c-0.1-0.2-0.2-0.4-0.3-0.6c-0.1-0.2-0.3-0.3-0.5-0.4
			C81.5,27.2,81.2,27.1,80.9,27.1z"/>
		<path class="st2" d="M90.7,35.1v-9.9h1.7c0.1,0,0.3,0,0.4,0c0.1,0,0.2,0.1,0.2,0.1c0.1,0.1,0.1,0.1,0.2,0.2c0,0.1,0.1,0.2,0.1,0.3
			l0.2,0.9c0.4-0.6,0.8-1,1.2-1.3c0.4-0.3,0.9-0.5,1.5-0.5c0.4,0,0.8,0.1,1.1,0.3l-0.4,2.2c0,0.1-0.1,0.2-0.2,0.3s-0.2,0.1-0.3,0.1
			c-0.1,0-0.2,0-0.4,0s-0.3,0-0.6,0c-0.8,0-1.4,0.4-1.8,1.2v6H90.7z"/>
		<path class="st2" d="M102.7,25.1c0.7,0,1.2,0.1,1.8,0.3c0.5,0.2,1,0.5,1.4,0.9c0.4,0.4,0.7,0.9,0.9,1.4s0.3,1.2,0.3,1.9
			c0,0.2,0,0.4,0,0.5c0,0.1-0.1,0.2-0.1,0.3c-0.1,0.1-0.1,0.1-0.2,0.2c-0.1,0-0.2,0-0.3,0h-5.7c0.1,0.8,0.3,1.4,0.8,1.8
			c0.4,0.4,0.9,0.6,1.6,0.6c0.3,0,0.6,0,0.9-0.1c0.2-0.1,0.5-0.2,0.7-0.3c0.2-0.1,0.4-0.2,0.5-0.3c0.2-0.1,0.3-0.1,0.5-0.1
			c0.2,0,0.4,0.1,0.5,0.3l0.9,1.1c-0.3,0.3-0.6,0.6-1,0.9c-0.4,0.2-0.7,0.4-1.1,0.5c-0.4,0.1-0.7,0.2-1.1,0.3
			c-0.4,0-0.7,0.1-1.1,0.1c-0.7,0-1.3-0.1-1.9-0.3s-1.1-0.6-1.6-1c-0.5-0.4-0.8-1-1.1-1.7c-0.3-0.7-0.4-1.4-0.4-2.3
			c0-0.7,0.1-1.3,0.3-1.9c0.2-0.6,0.5-1.1,1-1.5c0.4-0.4,0.9-0.8,1.5-1.1C101.3,25.2,102,25.1,102.7,25.1z M102.8,27.1
			c-0.6,0-1,0.2-1.3,0.5c-0.3,0.3-0.5,0.8-0.6,1.4h3.7c0-0.2,0-0.5-0.1-0.7c-0.1-0.2-0.2-0.4-0.3-0.6c-0.1-0.2-0.3-0.3-0.5-0.4
			C103.4,27.2,103.1,27.1,102.8,27.1z"/>
		<path class="st2" d="M115.6,35.1c-0.3,0-0.5,0-0.6-0.1s-0.3-0.2-0.4-0.5l-0.2-0.5c-0.2,0.2-0.5,0.4-0.7,0.6
			c-0.2,0.2-0.5,0.3-0.7,0.4c-0.2,0.1-0.5,0.2-0.8,0.2s-0.6,0.1-0.9,0.1c-0.4,0-0.9-0.1-1.2-0.2s-0.7-0.3-0.9-0.5
			c-0.3-0.2-0.5-0.5-0.6-0.9s-0.2-0.7-0.2-1.2c0-0.3,0.1-0.7,0.3-1.1c0.2-0.4,0.5-0.7,0.9-1c0.4-0.3,1-0.6,1.8-0.8
			c0.7-0.2,1.7-0.3,2.8-0.3V29c0-0.6-0.1-1-0.4-1.3c-0.2-0.3-0.6-0.4-1-0.4c-0.3,0-0.6,0-0.9,0.1s-0.4,0.2-0.6,0.3
			c-0.2,0.1-0.3,0.2-0.5,0.3c-0.2,0.1-0.4,0.1-0.6,0.1c-0.2,0-0.4,0-0.5-0.1c-0.1-0.1-0.3-0.2-0.3-0.4l-0.5-0.9
			c0.6-0.5,1.3-0.9,2-1.2c0.7-0.3,1.5-0.4,2.3-0.4c0.6,0,1.1,0.1,1.6,0.3c0.5,0.2,0.9,0.5,1.2,0.8c0.3,0.3,0.6,0.8,0.8,1.2
			c0.2,0.5,0.3,1,0.3,1.6v6.2H115.6z M112.3,33.3c0.4,0,0.7-0.1,1-0.2s0.6-0.3,0.9-0.6v-1.3c-0.6,0-1.1,0-1.5,0.1s-0.7,0.2-0.9,0.3
			c-0.2,0.1-0.4,0.2-0.5,0.4c-0.1,0.1-0.1,0.3-0.1,0.5c0,0.3,0.1,0.6,0.3,0.7C111.6,33.2,111.9,33.3,112.3,33.3z"/>
		<path class="st2" d="M126,35.1c-0.2,0-0.3,0-0.5-0.1c-0.1-0.1-0.2-0.2-0.3-0.4l-0.2-0.8c-0.2,0.2-0.4,0.4-0.6,0.6
			c-0.2,0.2-0.4,0.3-0.7,0.4c-0.2,0.1-0.5,0.2-0.8,0.3c-0.3,0.1-0.6,0.1-0.9,0.1c-0.5,0-1-0.1-1.4-0.3c-0.4-0.2-0.8-0.6-1.1-1
			c-0.3-0.4-0.6-1-0.7-1.6s-0.3-1.3-0.3-2.1c0-0.7,0.1-1.4,0.3-2c0.2-0.6,0.5-1.2,0.9-1.6c0.4-0.5,0.8-0.8,1.3-1.1
			c0.5-0.3,1.1-0.4,1.7-0.4c0.5,0,0.9,0.1,1.3,0.2c0.4,0.1,0.7,0.3,1,0.6v-5h2.9v14.2H126z M123,33c0.2,0,0.4,0,0.6-0.1
			c0.2,0,0.3-0.1,0.5-0.2c0.1-0.1,0.3-0.2,0.4-0.3c0.1-0.1,0.3-0.2,0.4-0.4v-4.2c-0.2-0.2-0.5-0.4-0.7-0.5c-0.3-0.1-0.5-0.1-0.8-0.1
			c-0.3,0-0.5,0.1-0.8,0.2c-0.2,0.1-0.4,0.3-0.6,0.5s-0.3,0.5-0.4,0.9c-0.1,0.4-0.1,0.8-0.1,1.4c0,0.5,0,1,0.1,1.3
			c0.1,0.4,0.2,0.6,0.3,0.9c0.1,0.2,0.3,0.4,0.5,0.5C122.6,33,122.8,33,123,33z"/>
		<path class="st2" d="M134.1,37.7c-0.1,0.2-0.2,0.3-0.3,0.4s-0.3,0.1-0.6,0.1H131l1.9-4l-3.9-9h2.6c0.2,0,0.4,0.1,0.5,0.2
			s0.2,0.2,0.3,0.4L134,30c0.2,0.4,0.3,0.8,0.4,1.2c0.1-0.2,0.1-0.4,0.2-0.6s0.1-0.4,0.2-0.6l1.5-4.2c0-0.1,0.2-0.3,0.3-0.4
			c0.1-0.1,0.3-0.1,0.5-0.1h2.4L134.1,37.7z"/>
		<path class="st2" d="M144.7,35.1v-7.8l-0.6-0.1c-0.2-0.1-0.4-0.1-0.5-0.2c-0.1-0.1-0.2-0.3-0.2-0.5v-1.2h1.4v-0.6
			c0-0.6,0.1-1.1,0.3-1.5s0.4-0.8,0.8-1.2s0.8-0.6,1.2-0.8c0.5-0.2,1-0.3,1.7-0.3c0.2,0,0.5,0,0.7,0c0.2,0,0.4,0.1,0.6,0.1l-0.1,1.4
			c0,0.1,0,0.2-0.1,0.3c0,0.1-0.1,0.1-0.2,0.2s-0.1,0.1-0.2,0.1c-0.1,0-0.2,0-0.3,0c-0.3,0-0.5,0-0.7,0.1c-0.2,0.1-0.4,0.1-0.5,0.3
			c-0.1,0.1-0.2,0.3-0.3,0.5c-0.1,0.2-0.1,0.5-0.1,0.8v0.5h2.3v2h-2.2v7.8H144.7z"/>
		<path class="st2" d="M155.5,25.1c0.7,0,1.4,0.1,2,0.4s1.1,0.6,1.6,1c0.4,0.4,0.8,1,1,1.6c0.2,0.6,0.4,1.3,0.4,2.1
			c0,0.8-0.1,1.5-0.4,2.1c-0.2,0.6-0.6,1.2-1,1.6s-1,0.8-1.6,1s-1.3,0.4-2,0.4c-0.8,0-1.4-0.1-2.1-0.4c-0.6-0.2-1.2-0.6-1.6-1
			s-0.8-1-1-1.6s-0.4-1.3-0.4-2.1c0-0.8,0.1-1.5,0.4-2.1s0.6-1.2,1-1.6c0.4-0.4,1-0.8,1.6-1C154.1,25.2,154.8,25.1,155.5,25.1z
			 M155.5,33.1c0.7,0,1.2-0.2,1.5-0.7c0.3-0.5,0.5-1.2,0.5-2.2c0-1-0.2-1.7-0.5-2.2c-0.3-0.5-0.8-0.7-1.5-0.7
			c-0.7,0-1.2,0.2-1.5,0.7c-0.3,0.5-0.5,1.2-0.5,2.2c0,1,0.2,1.7,0.5,2.2C154.3,32.8,154.8,33.1,155.5,33.1z"/>
		<path class="st2" d="M162.2,35.1v-9.9h1.7c0.1,0,0.3,0,0.4,0c0.1,0,0.2,0.1,0.2,0.1s0.1,0.1,0.2,0.2c0,0.1,0.1,0.2,0.1,0.3
			l0.2,0.9c0.4-0.6,0.8-1,1.2-1.3c0.5-0.3,0.9-0.5,1.5-0.5c0.5,0,0.8,0.1,1.1,0.3l-0.4,2.2c0,0.1-0.1,0.2-0.2,0.3
			c-0.1,0.1-0.2,0.1-0.3,0.1c-0.1,0-0.2,0-0.4,0s-0.3,0-0.6,0c-0.8,0-1.4,0.4-1.8,1.2v6H162.2z"/>
	</g>
	<g class="st1">
		<path class="st2" d="M45.6,58.1c-0.5,0-0.9-0.1-1.2-0.2c-0.4-0.1-0.7-0.3-0.9-0.6c-0.2-0.2-0.4-0.6-0.6-0.9
			c-0.1-0.4-0.2-0.8-0.2-1.2v-5.1h-0.8c-0.2,0-0.3,0-0.4-0.1c-0.1-0.1-0.2-0.2-0.2-0.4v-1.1l1.6-0.3l0.6-2.4
			c0.1-0.3,0.3-0.5,0.6-0.5h1.5v2.9H48v2h-2.4V55c0,0.2,0.1,0.4,0.2,0.6c0.1,0.1,0.3,0.2,0.5,0.2c0.1,0,0.2,0,0.3,0
			c0.1,0,0.1,0,0.2-0.1c0.1,0,0.1-0.1,0.2-0.1c0,0,0.1,0,0.2,0c0.1,0,0.2,0,0.2,0.1c0.1,0,0.1,0.1,0.2,0.2l0.9,1.4
			c-0.4,0.3-0.8,0.5-1.3,0.6C46.6,58,46.1,58.1,45.6,58.1z"/>
		<path class="st2" d="M49.7,57.9V43.7h2.9v5.2c0.4-0.3,0.7-0.5,1.2-0.7c0.4-0.2,0.9-0.3,1.5-0.3c0.5,0,1,0.1,1.4,0.3
			c0.4,0.2,0.8,0.4,1,0.8c0.3,0.3,0.5,0.7,0.6,1.2c0.1,0.5,0.2,1,0.2,1.5v6.3h-2.9v-6.3c0-0.5-0.1-0.9-0.3-1.1
			c-0.2-0.3-0.5-0.4-1-0.4c-0.3,0-0.6,0.1-0.9,0.2c-0.3,0.1-0.6,0.3-0.8,0.6v7H49.7z"/>
		<path class="st2" d="M65,47.9c0.7,0,1.2,0.1,1.8,0.3c0.5,0.2,1,0.5,1.4,0.9c0.4,0.4,0.7,0.9,0.9,1.4c0.2,0.6,0.3,1.2,0.3,1.9
			c0,0.2,0,0.4,0,0.5c0,0.1-0.1,0.2-0.1,0.3c-0.1,0.1-0.1,0.1-0.2,0.2c-0.1,0-0.2,0-0.3,0h-5.7c0.1,0.8,0.3,1.4,0.8,1.8
			c0.4,0.4,0.9,0.6,1.6,0.6c0.3,0,0.6,0,0.9-0.1c0.2-0.1,0.5-0.2,0.7-0.3c0.2-0.1,0.4-0.2,0.5-0.3c0.2-0.1,0.3-0.1,0.5-0.1
			c0.2,0,0.4,0.1,0.5,0.3l0.9,1.1c-0.3,0.3-0.6,0.6-1,0.9c-0.4,0.2-0.7,0.4-1.1,0.5s-0.7,0.2-1.1,0.3c-0.4,0-0.7,0.1-1.1,0.1
			c-0.7,0-1.3-0.1-1.9-0.3c-0.6-0.2-1.1-0.6-1.6-1c-0.5-0.4-0.8-1-1.1-1.7c-0.3-0.7-0.4-1.4-0.4-2.3c0-0.7,0.1-1.3,0.3-1.9
			c0.2-0.6,0.5-1.1,1-1.5c0.4-0.4,0.9-0.8,1.5-1.1C63.5,48,64.2,47.9,65,47.9z M65,49.9c-0.6,0-1,0.2-1.3,0.5
			c-0.3,0.3-0.5,0.8-0.6,1.4h3.7c0-0.2,0-0.5-0.1-0.7c-0.1-0.2-0.2-0.4-0.3-0.6c-0.1-0.2-0.3-0.3-0.5-0.4C65.6,50,65.3,49.9,65,49.9
			z"/>
		<path class="st2" d="M74.8,57.9v-9.9h1.8c0.2,0,0.3,0,0.5,0.1c0.1,0.1,0.2,0.2,0.3,0.4l0.2,0.6c0.2-0.2,0.4-0.3,0.6-0.5
			c0.2-0.2,0.4-0.3,0.7-0.4s0.5-0.2,0.8-0.2s0.6-0.1,0.9-0.1c0.5,0,1,0.1,1.4,0.3c0.4,0.2,0.8,0.4,1,0.8c0.3,0.3,0.5,0.7,0.6,1.2
			c0.1,0.5,0.2,1,0.2,1.5v6.3h-2.9v-6.3c0-0.5-0.1-0.9-0.3-1.1c-0.2-0.3-0.5-0.4-1-0.4c-0.3,0-0.6,0.1-0.9,0.2
			c-0.3,0.1-0.6,0.3-0.8,0.6v7H74.8z"/>
		<path class="st2" d="M90,47.9c0.7,0,1.2,0.1,1.8,0.3c0.5,0.2,1,0.5,1.4,0.9c0.4,0.4,0.7,0.9,0.9,1.4c0.2,0.6,0.3,1.2,0.3,1.9
			c0,0.2,0,0.4,0,0.5c0,0.1-0.1,0.2-0.1,0.3c-0.1,0.1-0.1,0.1-0.2,0.2c-0.1,0-0.2,0-0.3,0h-5.7c0.1,0.8,0.3,1.4,0.8,1.8
			c0.4,0.4,0.9,0.6,1.6,0.6c0.3,0,0.6,0,0.9-0.1c0.2-0.1,0.5-0.2,0.7-0.3c0.2-0.1,0.4-0.2,0.5-0.3c0.2-0.1,0.3-0.1,0.5-0.1
			c0.2,0,0.4,0.1,0.5,0.3l0.9,1.1c-0.3,0.3-0.6,0.6-1,0.9c-0.4,0.2-0.7,0.4-1.1,0.5s-0.7,0.2-1.1,0.3c-0.4,0-0.7,0.1-1.1,0.1
			c-0.7,0-1.3-0.1-1.9-0.3c-0.6-0.2-1.1-0.6-1.6-1c-0.5-0.4-0.8-1-1.1-1.7c-0.3-0.7-0.4-1.4-0.4-2.3c0-0.7,0.1-1.3,0.3-1.9
			c0.2-0.6,0.5-1.1,1-1.5c0.4-0.4,0.9-0.8,1.5-1.1C88.6,48,89.2,47.9,90,47.9z M90.1,49.9c-0.6,0-1,0.2-1.3,0.5
			c-0.3,0.3-0.5,0.8-0.6,1.4h3.7c0-0.2,0-0.5-0.1-0.7c-0.1-0.2-0.2-0.4-0.3-0.6c-0.1-0.2-0.3-0.3-0.5-0.4
			C90.6,50,90.4,49.9,90.1,49.9z"/>
		<path class="st2" d="M97.9,52.8l-3.2-4.8h2.8c0.2,0,0.4,0,0.5,0.1s0.2,0.1,0.3,0.3l1.8,2.9c0-0.1,0.1-0.2,0.1-0.3
			c0.1-0.1,0.1-0.2,0.2-0.3l1.3-2.2c0.1-0.1,0.2-0.2,0.3-0.3c0.1-0.1,0.2-0.1,0.4-0.1h2.7l-3.2,4.6l3.3,5.2h-2.8
			c-0.2,0-0.4-0.1-0.5-0.2c-0.1-0.1-0.2-0.2-0.3-0.4l-1.8-3c0,0.1-0.1,0.2-0.1,0.3c0,0.1-0.1,0.2-0.1,0.3L98,57.4
			c-0.1,0.1-0.2,0.3-0.3,0.4c-0.1,0.1-0.3,0.2-0.5,0.2h-2.6L97.9,52.8z"/>
		<path class="st2" d="M109.9,58.1c-0.5,0-0.9-0.1-1.2-0.2c-0.4-0.1-0.7-0.3-0.9-0.6s-0.4-0.6-0.6-0.9s-0.2-0.8-0.2-1.2v-5.1h-0.8
			c-0.2,0-0.3,0-0.4-0.1c-0.1-0.1-0.2-0.2-0.2-0.4v-1.1l1.6-0.3l0.6-2.4c0.1-0.3,0.3-0.5,0.6-0.5h1.5v2.9h2.4v2h-2.4V55
			c0,0.2,0.1,0.4,0.2,0.6c0.1,0.1,0.3,0.2,0.5,0.2c0.1,0,0.2,0,0.3,0c0.1,0,0.1,0,0.2-0.1c0.1,0,0.1-0.1,0.2-0.1c0,0,0.1,0,0.2,0
			c0.1,0,0.2,0,0.2,0.1s0.1,0.1,0.2,0.2l0.9,1.4c-0.4,0.3-0.8,0.5-1.3,0.6C110.9,58,110.4,58.1,109.9,58.1z"/>
		<path class="st2" d="M120.7,43.7v14.2h-2.9V43.7H120.7z"/>
		<path class="st2" d="M127.3,47.9c0.7,0,1.2,0.1,1.8,0.3c0.5,0.2,1,0.5,1.4,0.9c0.4,0.4,0.7,0.9,0.9,1.4c0.2,0.6,0.3,1.2,0.3,1.9
			c0,0.2,0,0.4,0,0.5c0,0.1-0.1,0.2-0.1,0.3c-0.1,0.1-0.1,0.1-0.2,0.2c-0.1,0-0.2,0-0.3,0h-5.7c0.1,0.8,0.3,1.4,0.8,1.8
			c0.4,0.4,0.9,0.6,1.6,0.6c0.3,0,0.6,0,0.9-0.1c0.2-0.1,0.5-0.2,0.7-0.3c0.2-0.1,0.4-0.2,0.5-0.3s0.3-0.1,0.5-0.1
			c0.2,0,0.4,0.1,0.5,0.3l0.9,1.1c-0.3,0.3-0.6,0.6-1,0.9c-0.4,0.2-0.7,0.4-1.1,0.5c-0.4,0.1-0.7,0.2-1.1,0.3
			c-0.4,0-0.7,0.1-1.1,0.1c-0.7,0-1.3-0.1-1.9-0.3c-0.6-0.2-1.1-0.6-1.6-1s-0.8-1-1.1-1.7c-0.3-0.7-0.4-1.4-0.4-2.3
			c0-0.7,0.1-1.3,0.3-1.9c0.2-0.6,0.5-1.1,1-1.5c0.4-0.4,0.9-0.8,1.5-1.1S126.6,47.9,127.3,47.9z M127.4,49.9c-0.6,0-1,0.2-1.3,0.5
			c-0.3,0.3-0.5,0.8-0.6,1.4h3.7c0-0.2,0-0.5-0.1-0.7c-0.1-0.2-0.2-0.4-0.3-0.6c-0.1-0.2-0.3-0.3-0.5-0.4
			C128,50,127.7,49.9,127.4,49.9z"/>
		<path class="st2" d="M138.5,57.9h-2.7l-3.8-9.9h2.5c0.2,0,0.4,0,0.5,0.1c0.1,0.1,0.2,0.2,0.3,0.4l1.4,4.4c0.1,0.4,0.2,0.7,0.3,1.1
			c0.1,0.3,0.2,0.7,0.3,1c0.1-0.3,0.2-0.7,0.3-1c0.1-0.3,0.2-0.7,0.3-1.1l1.4-4.4c0.1-0.1,0.1-0.3,0.3-0.4c0.1-0.1,0.3-0.1,0.5-0.1
			h2.3L138.5,57.9z"/>
		<path class="st2" d="M147.4,47.9c0.7,0,1.2,0.1,1.8,0.3c0.5,0.2,1,0.5,1.4,0.9c0.4,0.4,0.7,0.9,0.9,1.4s0.3,1.2,0.3,1.9
			c0,0.2,0,0.4,0,0.5c0,0.1-0.1,0.2-0.1,0.3c-0.1,0.1-0.1,0.1-0.2,0.2c-0.1,0-0.2,0-0.3,0h-5.7c0.1,0.8,0.3,1.4,0.8,1.8
			c0.4,0.4,0.9,0.6,1.6,0.6c0.3,0,0.6,0,0.9-0.1c0.2-0.1,0.5-0.2,0.7-0.3c0.2-0.1,0.4-0.2,0.5-0.3c0.2-0.1,0.3-0.1,0.5-0.1
			c0.2,0,0.4,0.1,0.5,0.3l0.9,1.1c-0.3,0.3-0.6,0.6-1,0.9c-0.4,0.2-0.7,0.4-1.1,0.5c-0.4,0.1-0.7,0.2-1.1,0.3
			c-0.4,0-0.7,0.1-1.1,0.1c-0.7,0-1.3-0.1-1.9-0.3c-0.6-0.2-1.1-0.6-1.6-1c-0.5-0.4-0.8-1-1.1-1.7c-0.3-0.7-0.4-1.4-0.4-2.3
			c0-0.7,0.1-1.3,0.3-1.9s0.5-1.1,1-1.5c0.4-0.4,0.9-0.8,1.5-1.1S146.7,47.9,147.4,47.9z M147.5,49.9c-0.6,0-1,0.2-1.3,0.5
			c-0.3,0.3-0.5,0.8-0.6,1.4h3.7c0-0.2,0-0.5-0.1-0.7c-0.1-0.2-0.2-0.4-0.3-0.6c-0.1-0.2-0.3-0.3-0.5-0.4
			C148.1,50,147.8,49.9,147.5,49.9z"/>
		<path class="st2" d="M156.6,43.7v14.2h-2.9V43.7H156.6z"/>
	</g>
</g>
</svg>
