<?xml version="1.0" encoding="utf-8"?>
<!-- Generator: Adobe Illustrator 21.1.0, SVG Export Plug-In . SVG Version: 6.00 Build 0)  -->
<svg version="1.1" id="Layer_1" xmlns="http://www.w3.org/2000/svg" xmlns:xlink="http://www.w3.org/1999/xlink" x="0px" y="0px"
	 viewBox="0 0 200 80" style="enable-background:new 0 0 200 80;" xml:space="preserve">
<style type="text/css">
	.st0{fill:#485CAA;}
	.st1{enable-background:new    ;}
	.st2{fill:#FFFFFF;}
</style>
<g id="Layer_1_1_">
	<ellipse class="st0" cx="100" cy="39.9" rx="97.9" ry="38.1"/>
</g>
<g id="Layer_2">
	<g class="st1">
		<path class="st2" d="M24.5,42.8c0.1,0,0.2,0,0.2,0c0.1,0,0.1,0.1,0.2,0.1l1.3,1.3c-0.6,0.7-1.3,1.3-2.1,1.6
			c-0.8,0.4-1.8,0.6-3,0.6c-1.1,0-2-0.2-2.8-0.5c-0.8-0.4-1.5-0.9-2.1-1.5c-0.6-0.6-1-1.4-1.3-2.2c-0.3-0.9-0.5-1.8-0.5-2.8
			c0-1,0.2-2,0.5-2.8c0.4-0.9,0.9-1.6,1.5-2.2c0.6-0.6,1.4-1.1,2.3-1.5c0.9-0.3,1.9-0.5,2.9-0.5c0.5,0,1,0,1.5,0.1
			c0.5,0.1,0.9,0.2,1.3,0.4c0.4,0.2,0.8,0.4,1.1,0.6c0.3,0.2,0.6,0.5,0.9,0.7l-1.1,1.5c-0.1,0.1-0.2,0.2-0.2,0.2
			C25,36,24.9,36,24.7,36c-0.1,0-0.2,0-0.3-0.1c-0.1,0-0.2-0.1-0.3-0.2c-0.1-0.1-0.2-0.2-0.4-0.2c-0.1-0.1-0.3-0.2-0.5-0.2
			c-0.2-0.1-0.4-0.1-0.7-0.2C22.3,35,22,35,21.7,35c-0.6,0-1.1,0.1-1.6,0.3s-0.9,0.5-1.2,0.9c-0.3,0.4-0.6,0.8-0.8,1.4
			c-0.2,0.5-0.3,1.2-0.3,1.8c0,0.7,0.1,1.3,0.3,1.9c0.2,0.6,0.5,1,0.8,1.4c0.3,0.4,0.7,0.7,1.2,0.9s0.9,0.3,1.4,0.3
			c0.3,0,0.6,0,0.8,0c0.2,0,0.5-0.1,0.7-0.1c0.2-0.1,0.4-0.2,0.6-0.3c0.2-0.1,0.4-0.2,0.6-0.4c0.1-0.1,0.2-0.1,0.2-0.2
			C24.3,42.8,24.4,42.8,24.5,42.8z"/>
		<path class="st2" d="M34.5,46.3c-0.3,0-0.5,0-0.6-0.1c-0.1-0.1-0.3-0.2-0.4-0.5l-0.2-0.5c-0.2,0.2-0.5,0.4-0.7,0.6
			s-0.5,0.3-0.7,0.4c-0.2,0.1-0.5,0.2-0.8,0.2c-0.3,0.1-0.6,0.1-0.9,0.1c-0.4,0-0.9-0.1-1.2-0.2S28.3,46,28,45.8s-0.5-0.5-0.6-0.9
			c-0.1-0.3-0.2-0.7-0.2-1.2c0-0.3,0.1-0.7,0.3-1.1c0.2-0.4,0.5-0.7,0.9-1s1-0.6,1.8-0.8c0.7-0.2,1.7-0.3,2.8-0.3v-0.4
			c0-0.6-0.1-1-0.4-1.3c-0.2-0.3-0.6-0.4-1-0.4c-0.3,0-0.6,0-0.9,0.1c-0.2,0.1-0.4,0.2-0.6,0.3c-0.2,0.1-0.3,0.2-0.5,0.3
			c-0.2,0.1-0.4,0.1-0.6,0.1c-0.2,0-0.4,0-0.5-0.1c-0.1-0.1-0.3-0.2-0.3-0.4l-0.5-0.9c0.6-0.5,1.3-0.9,2-1.2
			c0.7-0.3,1.5-0.4,2.3-0.4c0.6,0,1.1,0.1,1.6,0.3c0.5,0.2,0.9,0.5,1.2,0.8c0.3,0.3,0.6,0.8,0.8,1.2c0.2,0.5,0.3,1,0.3,1.6v6.2H34.5
			z M31.1,44.5c0.4,0,0.7-0.1,1-0.2c0.3-0.1,0.6-0.3,0.9-0.6v-1.3c-0.6,0-1.1,0-1.5,0.1c-0.4,0.1-0.7,0.2-0.9,0.3
			c-0.2,0.1-0.4,0.2-0.5,0.4c-0.1,0.1-0.1,0.3-0.1,0.5c0,0.3,0.1,0.6,0.3,0.7C30.5,44.5,30.8,44.5,31.1,44.5z"/>
		<path class="st2" d="M41.4,46.5c-0.5,0-0.9-0.1-1.2-0.2c-0.4-0.1-0.7-0.3-0.9-0.6c-0.2-0.2-0.4-0.6-0.6-0.9
			c-0.1-0.4-0.2-0.8-0.2-1.2v-5.1h-0.8c-0.2,0-0.3,0-0.4-0.1c-0.1-0.1-0.2-0.2-0.2-0.4v-1.1l1.6-0.3l0.6-2.4
			c0.1-0.3,0.3-0.5,0.6-0.5h1.5v2.9h2.4v2h-2.4v4.9c0,0.2,0.1,0.4,0.2,0.6c0.1,0.1,0.3,0.2,0.5,0.2c0.1,0,0.2,0,0.3,0
			c0.1,0,0.1,0,0.2-0.1c0.1,0,0.1-0.1,0.2-0.1c0,0,0.1,0,0.2,0c0.1,0,0.2,0,0.2,0.1c0.1,0,0.1,0.1,0.2,0.2l0.9,1.4
			c-0.4,0.3-0.8,0.5-1.3,0.6C42.4,46.4,41.9,46.5,41.4,46.5z"/>
		<path class="st2" d="M52.7,38.8c-0.1,0.1-0.2,0.2-0.3,0.3c-0.1,0.1-0.2,0.1-0.4,0.1c-0.1,0-0.3,0-0.4-0.1
			c-0.1-0.1-0.2-0.1-0.4-0.2c-0.1-0.1-0.3-0.2-0.5-0.2c-0.2-0.1-0.4-0.1-0.7-0.1c-0.4,0-0.7,0.1-0.9,0.2c-0.3,0.1-0.5,0.3-0.7,0.6
			s-0.3,0.5-0.4,0.9c-0.1,0.4-0.1,0.8-0.1,1.2c0,0.9,0.2,1.7,0.5,2.2c0.4,0.5,0.9,0.8,1.5,0.8c0.3,0,0.6,0,0.8-0.1
			c0.2-0.1,0.4-0.2,0.5-0.3c0.1-0.1,0.3-0.2,0.4-0.3c0.1-0.1,0.3-0.1,0.4-0.1c0.2,0,0.4,0.1,0.5,0.3l0.9,1.1c-0.3,0.3-0.6,0.6-1,0.9
			c-0.3,0.2-0.7,0.4-1,0.5s-0.7,0.2-1.1,0.3c-0.4,0-0.7,0.1-1,0.1c-0.6,0-1.2-0.1-1.7-0.3c-0.5-0.2-1-0.6-1.4-1
			c-0.4-0.4-0.7-1-1-1.6c-0.2-0.6-0.4-1.4-0.4-2.2c0-0.7,0.1-1.4,0.3-2c0.2-0.6,0.5-1.2,0.9-1.6c0.4-0.5,0.9-0.8,1.5-1.1
			c0.6-0.3,1.3-0.4,2.1-0.4c0.8,0,1.5,0.1,2,0.4c0.6,0.2,1.1,0.6,1.6,1.1L52.7,38.8z"/>
		<path class="st2" d="M54.8,46.3V32.1h2.9v5.2c0.4-0.3,0.7-0.5,1.2-0.7c0.4-0.2,0.9-0.3,1.5-0.3c0.5,0,1,0.1,1.4,0.3
			c0.4,0.2,0.8,0.4,1,0.8c0.3,0.3,0.5,0.7,0.6,1.2c0.1,0.5,0.2,1,0.2,1.5v6.3h-2.9v-6.3c0-0.5-0.1-0.9-0.3-1.1
			c-0.2-0.3-0.5-0.4-1-0.4c-0.3,0-0.6,0.1-0.9,0.2c-0.3,0.1-0.6,0.3-0.8,0.6v7H54.8z"/>
		<path class="st2" d="M72.9,46.5c-0.5,0-0.9-0.1-1.2-0.2c-0.4-0.1-0.7-0.3-0.9-0.6c-0.2-0.2-0.4-0.6-0.6-0.9
			C70.1,44.4,70,44,70,43.6v-5.1h-0.8c-0.2,0-0.3,0-0.4-0.1c-0.1-0.1-0.2-0.2-0.2-0.4v-1.1l1.6-0.3l0.6-2.4c0.1-0.3,0.3-0.5,0.6-0.5
			H73v2.9h2.4v2H73v4.9c0,0.2,0.1,0.4,0.2,0.6c0.1,0.1,0.3,0.2,0.5,0.2c0.1,0,0.2,0,0.3,0c0.1,0,0.1,0,0.2-0.1
			c0.1,0,0.1-0.1,0.2-0.1c0,0,0.1,0,0.2,0c0.1,0,0.2,0,0.2,0.1c0.1,0,0.1,0.1,0.2,0.2l0.9,1.4c-0.4,0.3-0.8,0.5-1.3,0.6
			C73.9,46.4,73.4,46.5,72.9,46.5z"/>
		<path class="st2" d="M77.1,46.3V32.1H80v5.2c0.4-0.3,0.7-0.5,1.2-0.7c0.4-0.2,0.9-0.3,1.5-0.3c0.5,0,1,0.1,1.4,0.3
			c0.4,0.2,0.8,0.4,1,0.8c0.3,0.3,0.5,0.7,0.6,1.2c0.1,0.5,0.2,1,0.2,1.5v6.3h-2.9v-6.3c0-0.5-0.1-0.9-0.3-1.1
			c-0.2-0.3-0.5-0.4-1-0.4c-0.3,0-0.6,0.1-0.9,0.2c-0.3,0.1-0.6,0.3-0.8,0.6v7H77.1z"/>
		<path class="st2" d="M92.3,36.3c0.7,0,1.2,0.1,1.8,0.3c0.5,0.2,1,0.5,1.4,0.9c0.4,0.4,0.7,0.9,0.9,1.4c0.2,0.6,0.3,1.2,0.3,1.9
			c0,0.2,0,0.4,0,0.5c0,0.1-0.1,0.2-0.1,0.3c-0.1,0.1-0.1,0.1-0.2,0.2c-0.1,0-0.2,0-0.3,0h-5.7c0.1,0.8,0.3,1.4,0.8,1.8
			c0.4,0.4,0.9,0.6,1.6,0.6c0.3,0,0.6,0,0.9-0.1c0.2-0.1,0.5-0.2,0.7-0.3c0.2-0.1,0.4-0.2,0.5-0.3c0.2-0.1,0.3-0.1,0.5-0.1
			c0.2,0,0.4,0.1,0.5,0.3l0.9,1.1c-0.3,0.3-0.6,0.6-1,0.9c-0.4,0.2-0.7,0.4-1.1,0.5s-0.7,0.2-1.1,0.3c-0.4,0-0.7,0.1-1.1,0.1
			c-0.7,0-1.3-0.1-1.9-0.3c-0.6-0.2-1.1-0.6-1.6-1c-0.5-0.4-0.8-1-1.1-1.7c-0.3-0.7-0.4-1.4-0.4-2.3c0-0.7,0.1-1.3,0.3-1.9
			c0.2-0.6,0.5-1.1,1-1.5c0.4-0.4,0.9-0.8,1.5-1.1C90.9,36.5,91.6,36.3,92.3,36.3z M92.4,38.4c-0.6,0-1,0.2-1.3,0.5
			c-0.3,0.3-0.5,0.8-0.6,1.4h3.7c0-0.2,0-0.5-0.1-0.7c-0.1-0.2-0.2-0.4-0.3-0.6c-0.1-0.2-0.3-0.3-0.5-0.4
			C93,38.4,92.7,38.4,92.4,38.4z"/>
		<path class="st2" d="M108.9,46.3c-0.3,0-0.5,0-0.6-0.1s-0.3-0.2-0.4-0.5l-0.2-0.5c-0.2,0.2-0.5,0.4-0.7,0.6
			c-0.2,0.2-0.5,0.3-0.7,0.4c-0.2,0.1-0.5,0.2-0.8,0.2s-0.6,0.1-0.9,0.1c-0.4,0-0.9-0.1-1.2-0.2s-0.7-0.3-0.9-0.5
			c-0.3-0.2-0.5-0.5-0.6-0.9s-0.2-0.7-0.2-1.2c0-0.3,0.1-0.7,0.3-1.1c0.2-0.4,0.5-0.7,0.9-1c0.4-0.3,1-0.6,1.8-0.8
			c0.7-0.2,1.7-0.3,2.8-0.3v-0.4c0-0.6-0.1-1-0.4-1.3c-0.2-0.3-0.6-0.4-1-0.4c-0.3,0-0.6,0-0.9,0.1s-0.4,0.2-0.6,0.3
			c-0.2,0.1-0.3,0.2-0.5,0.3c-0.2,0.1-0.4,0.1-0.6,0.1c-0.2,0-0.4,0-0.5-0.1c-0.1-0.1-0.3-0.2-0.3-0.4l-0.5-0.9
			c0.6-0.5,1.3-0.9,2-1.2c0.7-0.3,1.5-0.4,2.3-0.4c0.6,0,1.1,0.1,1.6,0.3c0.5,0.2,0.9,0.5,1.2,0.8c0.3,0.3,0.6,0.8,0.8,1.2
			c0.2,0.5,0.3,1,0.3,1.6v6.2H108.9z M105.5,44.5c0.4,0,0.7-0.1,1-0.2s0.6-0.3,0.9-0.6v-1.3c-0.6,0-1.1,0-1.5,0.1s-0.7,0.2-0.9,0.3
			c-0.2,0.1-0.4,0.2-0.5,0.4c-0.1,0.1-0.1,0.3-0.1,0.5c0,0.3,0.1,0.6,0.3,0.7C104.9,44.5,105.2,44.5,105.5,44.5z"/>
		<path class="st2" d="M118.4,38.6c-0.1,0.1-0.2,0.2-0.2,0.3s-0.2,0.1-0.3,0.1c-0.1,0-0.3,0-0.4-0.1c-0.1-0.1-0.3-0.1-0.5-0.2
			c-0.2-0.1-0.3-0.1-0.5-0.2c-0.2-0.1-0.4-0.1-0.7-0.1c-0.4,0-0.7,0.1-0.9,0.2c-0.2,0.1-0.3,0.3-0.3,0.6c0,0.2,0.1,0.3,0.2,0.5
			c0.1,0.1,0.3,0.2,0.5,0.3c0.2,0.1,0.5,0.2,0.7,0.3c0.3,0.1,0.6,0.2,0.8,0.3c0.3,0.1,0.6,0.2,0.8,0.4c0.3,0.1,0.5,0.3,0.7,0.5
			s0.4,0.4,0.5,0.7c0.1,0.3,0.2,0.6,0.2,1c0,0.5-0.1,0.9-0.3,1.3c-0.2,0.4-0.4,0.8-0.8,1.1c-0.4,0.3-0.8,0.5-1.3,0.7
			c-0.5,0.2-1.1,0.2-1.8,0.2c-0.3,0-0.7,0-1-0.1c-0.3-0.1-0.7-0.1-1-0.3s-0.6-0.2-0.9-0.4c-0.3-0.1-0.5-0.3-0.7-0.5l0.7-1.1
			c0.1-0.1,0.2-0.2,0.3-0.3c0.1-0.1,0.3-0.1,0.4-0.1c0.2,0,0.3,0,0.5,0.1c0.1,0.1,0.3,0.2,0.4,0.2s0.3,0.2,0.6,0.2
			c0.2,0.1,0.5,0.1,0.8,0.1c0.2,0,0.4,0,0.6-0.1c0.2,0,0.3-0.1,0.4-0.2c0.1-0.1,0.2-0.2,0.2-0.3c0-0.1,0.1-0.2,0.1-0.3
			c0-0.2-0.1-0.4-0.2-0.5s-0.3-0.2-0.5-0.3c-0.2-0.1-0.5-0.2-0.7-0.3s-0.6-0.2-0.8-0.3c-0.3-0.1-0.6-0.2-0.8-0.4s-0.5-0.3-0.7-0.5
			c-0.2-0.2-0.4-0.5-0.5-0.8c-0.1-0.3-0.2-0.7-0.2-1.1c0-0.4,0.1-0.8,0.2-1.2c0.2-0.4,0.4-0.7,0.7-1s0.7-0.5,1.2-0.7
			s1.1-0.3,1.7-0.3c0.4,0,0.7,0,1,0.1s0.6,0.2,0.9,0.3s0.6,0.2,0.8,0.4s0.5,0.3,0.6,0.5L118.4,38.6z"/>
		<path class="st2" d="M124.2,46.5c-0.5,0-0.9-0.1-1.2-0.2c-0.4-0.1-0.7-0.3-0.9-0.6c-0.2-0.2-0.4-0.6-0.6-0.9
			c-0.1-0.4-0.2-0.8-0.2-1.2v-5.1h-0.8c-0.2,0-0.3,0-0.4-0.1c-0.1-0.1-0.2-0.2-0.2-0.4v-1.1l1.6-0.3l0.6-2.4
			c0.1-0.3,0.3-0.5,0.6-0.5h1.5v2.9h2.4v2h-2.4v4.9c0,0.2,0.1,0.4,0.2,0.6c0.1,0.1,0.3,0.2,0.5,0.2c0.1,0,0.2,0,0.3,0
			c0.1,0,0.1,0,0.2-0.1c0.1,0,0.1-0.1,0.2-0.1c0,0,0.1,0,0.2,0c0.1,0,0.2,0,0.2,0.1s0.1,0.1,0.2,0.2l0.9,1.4
			c-0.4,0.3-0.8,0.5-1.3,0.6C125.2,46.4,124.7,46.5,124.2,46.5z"/>
		<path class="st2" d="M128.3,46.3v-9.9h1.7c0.1,0,0.3,0,0.4,0c0.1,0,0.2,0.1,0.2,0.1s0.1,0.1,0.2,0.2c0,0.1,0.1,0.2,0.1,0.3
			l0.2,0.9c0.4-0.6,0.8-1,1.2-1.3c0.5-0.3,0.9-0.5,1.5-0.5c0.5,0,0.8,0.1,1.1,0.3l-0.4,2.2c0,0.1-0.1,0.2-0.2,0.3
			c-0.1,0.1-0.2,0.1-0.3,0.1c-0.1,0-0.2,0-0.4,0s-0.3,0-0.6,0c-0.8,0-1.4,0.4-1.8,1.2v6H128.3z"/>
		<path class="st2" d="M140.5,36.3c0.7,0,1.4,0.1,2,0.4s1.1,0.6,1.6,1c0.4,0.4,0.8,1,1,1.6c0.2,0.6,0.4,1.3,0.4,2.1
			c0,0.8-0.1,1.5-0.4,2.1c-0.2,0.6-0.6,1.2-1,1.6s-1,0.8-1.6,1s-1.3,0.4-2,0.4c-0.8,0-1.4-0.1-2.1-0.4c-0.6-0.2-1.2-0.6-1.6-1
			s-0.8-1-1-1.6s-0.4-1.3-0.4-2.1c0-0.8,0.1-1.5,0.4-2.1s0.6-1.2,1-1.6c0.4-0.4,1-0.8,1.6-1C139.1,36.4,139.8,36.3,140.5,36.3z
			 M140.5,44.3c0.7,0,1.2-0.2,1.5-0.7c0.3-0.5,0.5-1.2,0.5-2.2c0-1-0.2-1.7-0.5-2.2c-0.3-0.5-0.8-0.7-1.5-0.7
			c-0.7,0-1.2,0.2-1.5,0.7c-0.3,0.5-0.5,1.2-0.5,2.2c0,1,0.2,1.7,0.5,2.2C139.3,44.1,139.8,44.3,140.5,44.3z"/>
		<path class="st2" d="M147.2,46.3v-9.9h1.8c0.2,0,0.3,0,0.5,0.1c0.1,0.1,0.2,0.2,0.3,0.4l0.2,0.6c0.2-0.2,0.4-0.3,0.6-0.5
			c0.2-0.2,0.4-0.3,0.7-0.4s0.5-0.2,0.8-0.2c0.3-0.1,0.6-0.1,0.9-0.1c0.5,0,1,0.1,1.4,0.3c0.4,0.2,0.8,0.4,1,0.8
			c0.3,0.3,0.5,0.7,0.6,1.2s0.2,1,0.2,1.5v6.3h-2.9v-6.3c0-0.5-0.1-0.9-0.3-1.1c-0.2-0.3-0.5-0.4-1-0.4c-0.3,0-0.6,0.1-0.9,0.2
			c-0.3,0.1-0.6,0.3-0.8,0.6v7H147.2z"/>
		<path class="st2" d="M165,46.3c-0.3,0-0.5,0-0.6-0.1s-0.3-0.2-0.4-0.5l-0.2-0.5c-0.2,0.2-0.5,0.4-0.7,0.6
			c-0.2,0.2-0.5,0.3-0.7,0.4c-0.2,0.1-0.5,0.2-0.8,0.2s-0.6,0.1-0.9,0.1c-0.4,0-0.9-0.1-1.2-0.2s-0.7-0.3-0.9-0.5s-0.5-0.5-0.6-0.9
			s-0.2-0.7-0.2-1.2c0-0.3,0.1-0.7,0.3-1.1c0.2-0.4,0.5-0.7,0.9-1c0.4-0.3,1-0.6,1.8-0.8c0.7-0.2,1.7-0.3,2.8-0.3v-0.4
			c0-0.6-0.1-1-0.4-1.3c-0.2-0.3-0.6-0.4-1-0.4c-0.3,0-0.6,0-0.9,0.1s-0.4,0.2-0.6,0.3c-0.2,0.1-0.3,0.2-0.5,0.3
			c-0.2,0.1-0.4,0.1-0.6,0.1c-0.2,0-0.4,0-0.5-0.1c-0.1-0.1-0.3-0.2-0.3-0.4l-0.5-0.9c0.6-0.5,1.3-0.9,2-1.2
			c0.7-0.3,1.5-0.4,2.3-0.4c0.6,0,1.1,0.1,1.6,0.3c0.5,0.2,0.9,0.5,1.2,0.8c0.3,0.3,0.6,0.8,0.8,1.2c0.2,0.5,0.3,1,0.3,1.6v6.2H165z
			 M161.6,44.5c0.4,0,0.7-0.1,1-0.2s0.6-0.3,0.9-0.6v-1.3c-0.6,0-1.1,0-1.5,0.1s-0.7,0.2-0.9,0.3c-0.2,0.1-0.4,0.2-0.5,0.4
			c-0.1,0.1-0.1,0.3-0.1,0.5c0,0.3,0.1,0.6,0.3,0.7C161,44.5,161.3,44.5,161.6,44.5z"/>
		<path class="st2" d="M171.2,36.5v6.3c0,0.5,0.1,0.9,0.3,1.1c0.2,0.3,0.5,0.4,1,0.4c0.3,0,0.6-0.1,0.9-0.2c0.3-0.1,0.6-0.3,0.8-0.6
			v-7h2.9v9.9h-1.8c-0.4,0-0.6-0.2-0.7-0.5l-0.2-0.6c-0.2,0.2-0.4,0.4-0.6,0.5c-0.2,0.1-0.4,0.3-0.7,0.4c-0.2,0.1-0.5,0.2-0.7,0.2
			c-0.3,0.1-0.6,0.1-0.9,0.1c-0.5,0-1-0.1-1.4-0.3c-0.4-0.2-0.8-0.4-1-0.8s-0.5-0.7-0.6-1.2c-0.1-0.5-0.2-1-0.2-1.5v-6.3H171.2z"/>
		<path class="st2" d="M182.9,46.5c-0.5,0-0.9-0.1-1.2-0.2c-0.4-0.1-0.7-0.3-0.9-0.6c-0.2-0.2-0.4-0.6-0.6-0.9
			c-0.1-0.4-0.2-0.8-0.2-1.2v-5.1h-0.8c-0.2,0-0.3,0-0.4-0.1c-0.1-0.1-0.2-0.2-0.2-0.4v-1.1l1.6-0.3l0.6-2.4
			c0.1-0.3,0.3-0.5,0.6-0.5h1.5v2.9h2.4v2H183v4.9c0,0.2,0.1,0.4,0.2,0.6c0.1,0.1,0.3,0.2,0.5,0.2c0.1,0,0.2,0,0.3,0
			c0.1,0,0.1,0,0.2-0.1c0.1,0,0.1-0.1,0.2-0.1c0,0,0.1,0,0.2,0c0.1,0,0.2,0,0.2,0.1s0.1,0.1,0.2,0.2l0.9,1.4
			c-0.4,0.3-0.8,0.5-1.3,0.6C183.9,46.4,183.4,46.5,182.9,46.5z"/>
	</g>
</g>
</svg>
